# xmcd
#
# Track frame offsets:
#	150
#	12174
#	28275
#	39357
#	57190
#	75350
#	91368
#	105655
#	119533
#	132455
#	146409
#	159953
#	171628
#	180403
#	190210
#	200950
#	216188
#	230725
#	244822
#	257722
#
# Disc length: 3586 seconds
#
# Revision: 1
# Processed by: cddbd v1.5.2PL0 Copyright (c) Steve Scherf et al.
# Submitted via: audiograbber 1.83.01
#
DISCID=1e0e0014
DTITLE=Various Artist - Country Masters Disk 3
DYEAR=1900
DGENRE=Country
TTITLE0=Johnny Paycheck - 01 - Take This Job And Shove It
TTITLE1=Randy Vanwarmer - 02 - Just When I Needed You Most
TTITLE2=The Bellamy Brothers - 03 - Let Your Love Flow
TTITLE3=Johnny Lee - 04 - Lookin' For Love
TTITLE4=Rick Nelson - 05 - Garden Party
TTITLE5=Sylvia - 06 - Nobody
TTITLE6=Conway Twitty - 07 - You've Never Been This Far Before
TTITLE7=George Jones - 08 - A Good Year For Roses
TTITLE8=Faron Young - 09 - It's Four In The Morning
TTITLE9=Jeanie Seely - 10 - One Day At A Time
TTITLE10=Patti Page - 11 - Tennesee Waltz
TTITLE11=Donna Fargo - 12 - The Happiest Girl In The Whole USA
TTITLE12=Ferlin Husky - 13 - Wings Of A Dove
TTITLE13=Dave Dudley - 14 - Six Days On The Road
TTITLE14=Waylon Jennings - 15 - Sally Was A Good Old Girl
TTITLE15=Billie Joe Spears - 16 - Blanket On The Ground
TTITLE16=Loretta Lynn  - 17 - Coalminer's Daughter
TTITLE17=Barbara Fairchild - 18 - Teddy Bear Song
TTITLE18=Claude King - 19 - Wolverton Mountain
TTITLE19=Stonewall Jackson - 20 - Waterloo
EXTD=
EXTT0=
EXTT1=
EXTT2=
EXTT3=
EXTT4=
EXTT5=
EXTT6=
EXTT7=
EXTT8=
EXTT9=
EXTT10=
EXTT11=
EXTT12=
EXTT13=
EXTT14=
EXTT15=
EXTT16=
EXTT17=
EXTT18=
EXTT19=
PLAYORDER=
